/* XPM */
static char * hpcviewer_icon_32x32_32bit_xpm[] = {
"32 32 588 2",
"  	c None",
". 	c #D7D7D7",
"+ 	c #DADADA",
"@ 	c #DDDDDD",
"# 	c #E4E5E4",
"$ 	c #E4E4E4",
"% 	c #E3E4E4",
"& 	c #DEDDDC",
"* 	c #CDCDCD",
"= 	c #CFCFCF",
"- 	c #CDCCCD",
"; 	c #D1D1D1",
"> 	c #D5D4D4",
", 	c #E0E1E1",
"' 	c #DFDED9",
") 	c #E3E2E2",
"! 	c #E3E3E2",
"~ 	c #DCDDDC",
"{ 	c #D7D8D7",
"] 	c #CACADC",
"^ 	c #C0C6BF",
"/ 	c #9EA19F",
"( 	c #8D928D",
"_ 	c #858C86",
": 	c #808679",
"< 	c #868C85",
"[ 	c #8C938C",
"} 	c #999D9A",
"| 	c #B3B5B4",
"1 	c #E5E5E5",
"2 	c #E4E5E5",
"3 	c #DFDEDD",
"4 	c #E3E3E4",
"5 	c #E4E2DD",
"6 	c #CCCBC8",
"7 	c #7C8088",
"8 	c #79847A",
"9 	c #939E96",
"0 	c #9FA59C",
"a 	c #9AA19A",
"b 	c #9B9E94",
"c 	c #9DA49C",
"d 	c #9BA398",
"e 	c #9AA297",
"f 	c #929995",
"g 	c #C0C3C3",
"h 	c #E6E6E6",
"i 	c #000000",
"j 	c #D8D7D9",
"k 	c #CDCACA",
"l 	c #D2D1D0",
"m 	c #CAC9C5",
"n 	c #797E79",
"o 	c #979D98",
"p 	c #ACB1AF",
"q 	c #B6BBB9",
"r 	c #B3B7B5",
"s 	c #C2C5C3",
"t 	c #C5C8C5",
"u 	c #B7BAB5",
"v 	c #ADB2AB",
"w 	c #A5AAA0",
"x 	c #9FA499",
"y 	c #A0A79D",
"z 	c #A3ABA0",
"A 	c #B2B6B4",
"B 	c #EBEBEB",
"C 	c #EDEDED",
"D 	c #E9E9E9",
"E 	c #CFCECB",
"F 	c #B1B0AC",
"G 	c #828784",
"H 	c #AEB2AD",
"I 	c #B0B5B3",
"J 	c #C1C5C0",
"K 	c #B6BBB8",
"L 	c #BFC1BC",
"M 	c #ACB0AC",
"N 	c #BCC0BC",
"O 	c #C4C8C3",
"P 	c #BEC2BD",
"Q 	c #BABDB8",
"R 	c #B0B3AA",
"S 	c #A4A89E",
"T 	c #A2A79C",
"U 	c #AAB1A8",
"V 	c #EFF0F0",
"W 	c #F1F1F1",
"X 	c #F4F4F4",
"Y 	c #DCDAD7",
"Z 	c #CAC8C3",
"` 	c #7B7F7D",
" .	c #BFC4C3",
"..	c #C5C7C4",
"+.	c #C2C7C5",
"@.	c #C8CDC9",
"#.	c #C9CECB",
"$.	c #E1E4DF",
"%.	c #DFE2DD",
"&.	c #DCDFDA",
"*.	c #D9DBD7",
"=.	c #D4D7D3",
"-.	c #CED1CD",
";.	c #C8CCC6",
">.	c #BCC0B8",
",.	c #AFB3A7",
"'.	c #ADB2A7",
").	c #B3BBB1",
"!.	c #C9CCCC",
"~.	c #FFFFFF",
"{.	c #F1F0EF",
"].	c #CEC9C4",
"^.	c #8D8D8A",
"/.	c #B3B9B6",
"(.	c #CDD1CF",
"_.	c #CFCFCB",
":.	c #CACFCD",
"<.	c #D3D6D2",
"[.	c #D9DCD9",
"}.	c #E7E9E5",
"|.	c #E5E7E3",
"1.	c #E2E5E0",
"2.	c #DFE1DE",
"3.	c #DBDED9",
"4.	c #D6D9D4",
"5.	c #D1D4D0",
"6.	c #C8CCC5",
"7.	c #BBBFB5",
"8.	c #AEB3A6",
"9.	c #AEB4AA",
"0.	c #B0B6AF",
"a.	c #EAECEC",
"b.	c #E6E2DF",
"c.	c #D2CCC5",
"d.	c #9B9F9B",
"e.	c #E3E7E1",
"f.	c #E8ECE7",
"g.	c #E4E8E3",
"h.	c #E8ECE6",
"i.	c #ECF1EB",
"j.	c #EAEDE8",
"k.	c #ECEEE9",
"l.	c #E8ECE8",
"m.	c #E6E9E5",
"n.	c #E3E6E1",
"o.	c #DFE3DE",
"p.	c #DCDFDB",
"q.	c #D5DAD4",
"r.	c #D0D4CF",
"s.	c #C7CAC4",
"t.	c #B7B9B0",
"u.	c #B0B7AD",
"v.	c #C0C3C1",
"w.	c #D6D1CC",
"x.	c #9C968F",
"y.	c #BFC3C0",
"z.	c #9E9F9D",
"A.	c #878987",
"B.	c #D8DBD6",
"C.	c #B6B9B7",
"D.	c #636462",
"E.	c #ECF0EC",
"F.	c #9B9D9A",
"G.	c #494A48",
"H.	c #4A4A49",
"I.	c #6A6C69",
"J.	c #D2D5D1",
"K.	c #DADED9",
"L.	c #9EA19E",
"M.	c #3C3D3B",
"N.	c #353634",
"O.	c #2A2B29",
"P.	c #5B5E59",
"Q.	c #ABAFA9",
"R.	c #F7F7F8",
"S.	c #CCC4BC",
"T.	c #999894",
"U.	c #E5E9E4",
"V.	c #888A87",
"W.	c #626362",
"X.	c #E9ECE8",
"Y.	c #E6EAE6",
"Z.	c #B6B9B5",
"`.	c #3C3D3C",
" +	c #F0F4F0",
".+	c #777A77",
"++	c #80827F",
"@+	c #D9DCD7",
"#+	c #575856",
"$+	c #696B68",
"%+	c #B2B5B1",
"&+	c #1D1D1C",
"*+	c #B7B8B4",
"=+	c #C6C9C2",
"-+	c #B3B6AA",
";+	c #8F9489",
">+	c #B5BDB3",
",+	c #D4D4D4",
"'+	c #C7BDB5",
")+	c #A3A49F",
"!+	c #ECF1EC",
"~+	c #8B8D8B",
"{+	c #5C5D5B",
"]+	c #D4DAD8",
"^+	c #DBDFDB",
"/+	c #A6A9A5",
"(+	c #3D3E3D",
"_+	c #F2F7F2",
":+	c #797B79",
"<+	c #868885",
"[+	c #E9EEE9",
"}+	c #858784",
"|+	c #616260",
"1+	c #595A58",
"2+	c #797B78",
"3+	c #D6D8D2",
"4+	c #CCCEC8",
"5+	c #BCBFB4",
"6+	c #A9ADA1",
"7+	c #B0B8AF",
"8+	c #C5C7C5",
"9+	c #C5BCB2",
"0+	c #A8ABA8",
"a+	c #EEF3EF",
"b+	c #181919",
"c+	c #3D3E3E",
"d+	c #404240",
"e+	c #303131",
"f+	c #F4F9F4",
"g+	c #7A7C7A",
"h+	c #5D5E5C",
"i+	c #8B8E8B",
"j+	c #242424",
"k+	c #BDBEBB",
"l+	c #3D3D3C",
"m+	c #9D9E9B",
"n+	c #D8DAD5",
"o+	c #CED0CA",
"p+	c #BBBFB6",
"q+	c #AAAFA3",
"r+	c #B1B7AF",
"s+	c #BFC1C0",
"t+	c #C5BCB1",
"u+	c #A9ABA8",
"v+	c #EFF4F1",
"w+	c #8E908E",
"x+	c #616261",
"y+	c #E7EAE7",
"z+	c #E6EBE6",
"A+	c #B9BDB9",
"B+	c #3D3F3E",
"C+	c #F5F9F5",
"D+	c #7A7D7A",
"E+	c #515351",
"F+	c #D9DDD8",
"G+	c #8E908D",
"H+	c #DADDD8",
"I+	c #CFD2CD",
"J+	c #BDC1BA",
"K+	c #ADB3A7",
"L+	c #B0B8AE",
"M+	c #BCBFBC",
"N+	c #C5BDB2",
"O+	c #ACADA5",
"P+	c #EEF1E8",
"Q+	c #8D8F8A",
"R+	c #676864",
"S+	c #E3E6DE",
"T+	c #D3D7CE",
"U+	c #B3B7AF",
"V+	c #303130",
"W+	c #D9DED5",
"X+	c #7A7B76",
"Y+	c #7B7D76",
"Z+	c #EBEFE7",
"`+	c #EDF2ED",
" @	c #EBEEEA",
".@	c #373837",
"+@	c #D7DBD6",
"@@	c #BEC4BE",
"#@	c #AFB6AF",
"$@	c #B1BBB0",
"%@	c #BCBEBD",
"&@	c #FEFEFF",
"*@	c #C8BFB3",
"=@	c #B2A97F",
"-@	c #E2DE94",
";@	c #8C895B",
">@	c #666343",
",@	c #E4DC96",
"'@	c #D5CF8E",
")@	c #B3AF76",
"!@	c #2F2F22",
"~@	c #D8D58F",
"{@	c #78764D",
"]@	c #77754F",
"^@	c #E2E7C9",
"/@	c #E4ECEF",
"(@	c #E1E8EA",
"_@	c #D9E2E3",
":@	c #525454",
"<@	c #2A2C2D",
"[@	c #5D6162",
"}@	c #454948",
"|@	c #434745",
"1@	c #A5B1B0",
"2@	c #C3C7CD",
"3@	c #F1F7FE",
"4@	c #CBC2B7",
"5@	c #C8BEB4",
"6@	c #CBCECE",
"7@	c #E5E8E6",
"8@	c #C4CACA",
"9@	c #F9F9F9",
"0@	c #F7F9F7",
"a@	c #E9EBE8",
"b@	c #F3F7F3",
"c@	c #E9EDE9",
"d@	c #EAEEEA",
"e@	c #F2F6F1",
"f@	c #F0F5EF",
"g@	c #EDF2EC",
"h@	c #E8EDE7",
"i@	c #E4E6E2",
"j@	c #C2C5BF",
"k@	c #9B9D98",
"l@	c #9A9E96",
"m@	c #A4ABA3",
"n@	c #9BA09D",
"o@	c #CFC7BC",
"p@	c #CFC5B8",
"q@	c #B9B8B2",
"r@	c #E7E9E8",
"s@	c #DEE1E1",
"t@	c #E1E5E6",
"u@	c #F1F1F2",
"v@	c #F2F2F1",
"w@	c #EAECEA",
"x@	c #F6F9F5",
"y@	c #F4F7F2",
"z@	c #F1F5F0",
"A@	c #EEF2EC",
"B@	c #EAEDE7",
"C@	c #E2E6E0",
"D@	c #C6CAC3",
"E@	c #AFB5AC",
"F@	c #A0A89C",
"G@	c #ACAFAD",
"H@	c #D7D0C8",
"I@	c #CAC2B5",
"J@	c #C7C9C7",
"K@	c #FAFCFC",
"L@	c #F7FBF8",
"M@	c #FDFFFE",
"N@	c #FAFEFB",
"O@	c #F6FBF6",
"P@	c #F5F8F4",
"Q@	c #F3F7F2",
"R@	c #EFF1EC",
"S@	c #E9ECE6",
"T@	c #E1E3DD",
"U@	c #D4D8D2",
"V@	c #BEC2BB",
"W@	c #A6ACA2",
"X@	c #858C85",
"Y@	c #EEEEEE",
"Z@	c #D9D5CF",
"`@	c #BEB7AD",
" #	c #BAB1A3",
".#	c #ACA59D",
"+#	c #C0C5C2",
"@#	c #DEE1E0",
"##	c #DADFDD",
"$#	c #DDE0DF",
"%#	c #D9DED8",
"&#	c #D8DCD7",
"*#	c #D8DBD8",
"=#	c #D5D9D5",
"-#	c #D1D5CF",
";#	c #C5C9C3",
">#	c #CCCFC9",
",#	c #A7ACA2",
"'#	c #53534C",
")#	c #908E8B",
"!#	c #CDCAC5",
"~#	c #C9C4BC",
"{#	c #BEB5A9",
"]#	c #B9AFA1",
"^#	c #ABA69E",
"/#	c #BCC0BE",
"(#	c #DDDEDD",
"_#	c #D9DDDB",
":#	c #C5CAC6",
"<#	c #CDD1CD",
"[#	c #CED3CF",
"}#	c #D0D2CD",
"|#	c #CACCC6",
"1#	c #C6C8C3",
"2#	c #C6C9C6",
"3#	c #B4B7B1",
"4#	c #9FA49C",
"5#	c #50514B",
"6#	c #3E3C3B",
"7#	c #CAC9C9",
"8#	c #DCDAD6",
"9#	c #D5D2CD",
"0#	c #C0B9B3",
"a#	c #B7AFA3",
"b#	c #B3A99D",
"c#	c #A39D93",
"d#	c #A7A9A7",
"e#	c #BFC3C2",
"f#	c #D2D4D0",
"g#	c #BCC0BD",
"h#	c #C5C8C3",
"i#	c #BBBDB9",
"j#	c #C3C6C1",
"k#	c #BABCB5",
"l#	c #ABAEA9",
"m#	c #8A8882",
"n#	c #302C28",
"o#	c #2A2421",
"p#	c #727070",
"q#	c #B7B3B3",
"r#	c #E5E4E4",
"s#	c #E7E7E7",
"t#	c #E7E7E5",
"u#	c #E7E7E6",
"v#	c #E5E4E3",
"w#	c #E3D1CE",
"x#	c #D0CDCC",
"y#	c #C9C4BE",
"z#	c #B6AEAA",
"A#	c #AEA6A1",
"B#	c #B69D8B",
"C#	c #9A8C85",
"D#	c #898C90",
"E#	c #AAAEB3",
"F#	c #C8CECD",
"G#	c #D0D5D0",
"H#	c #C7CBC7",
"I#	c #B2B8B4",
"J#	c #8A8D87",
"K#	c #68584F",
"L#	c #796A5B",
"M#	c #A08F84",
"N#	c #5A524E",
"O#	c #A2A2A2",
"P#	c #DBD8D7",
"Q#	c #ECECEC",
"R#	c #ECECEB",
"S#	c #EDEDEB",
"T#	c #E0DADA",
"U#	c #DAD8D8",
"V#	c #D7D4D1",
"W#	c #CAC6C2",
"X#	c #C3BCB4",
"Y#	c #BFB1A2",
"Z#	c #BBAD9C",
"`#	c #B5ABA1",
" $	c #A29B93",
".$	c #9A958F",
"+$	c #95918B",
"@$	c #92918B",
"#$	c #97938D",
"$$	c #9B938B",
"%$	c #AFA89C",
"&$	c #A89D8F",
"*$	c #9F907B",
"=$	c #A59781",
"-$	c #C0B3A8",
";$	c #5B5753",
">$	c #C4C3C3",
",$	c #D1CECC",
"'$	c #E6E6E5",
")$	c #DCDBD9",
"!$	c #E1E0DE",
"~$	c #EAE8E4",
"{$	c #E4E0DC",
"]$	c #DDD8D3",
"^$	c #D7D0C9",
"/$	c #D2CBC3",
"($	c #D0C7C1",
"_$	c #D0C8C1",
":$	c #D0CBC3",
"<$	c #D3CCC5",
"[$	c #D4CDC5",
"}$	c #C9C1B9",
"|$	c #B8AEA0",
"1$	c #B0A08D",
"2$	c #B5A795",
"3$	c #BDB2AA",
"4$	c #4C4847",
"5$	c #989494",
"6$	c #767470",
"7$	c #C5C5C3",
"8$	c #E1E1E1",
"9$	c #DFDFDF",
"0$	c #F3F3F3",
"a$	c #F7F7F7",
"b$	c #CDCDD1",
"c$	c #DAD7DA",
"d$	c #EFEEEF",
"e$	c #FAF9F7",
"f$	c #F7F5F3",
"g$	c #F3F1EE",
"h$	c #F1ECE8",
"i$	c #EEE8E5",
"j$	c #EDE8E4",
"k$	c #EDE9E5",
"l$	c #EFEBE6",
"m$	c #F1EBE8",
"n$	c #F1EBE7",
"o$	c #EEE7E3",
"p$	c #E5DED8",
"q$	c #D5CDC4",
"r$	c #BEB3A5",
"s$	c #B4A593",
"t$	c #AE9F90",
"u$	c #8A817B",
"v$	c #181716",
"w$	c #67686C",
"x$	c #5B5C5B",
"y$	c #DFDDDC",
"z$	c #E2E1E1",
"A$	c #F2F2F2",
"B$	c #ECEDED",
"C$	c #C6C6CA",
"D$	c #D0D1E1",
"E$	c #DADBE6",
"F$	c #E4E4EA",
"G$	c #F1F1F0",
"H$	c #EFEFED",
"I$	c #EFEDEA",
"J$	c #EFECE9",
"K$	c #EFECEA",
"L$	c #F0EDEB",
"M$	c #ECE9E6",
"N$	c #E6E3DE",
"O$	c #D9D4CE",
"P$	c #C5BCB4",
"Q$	c #AD9F8D",
"R$	c #918372",
"S$	c #27241F",
"T$	c #070606",
"U$	c #1F1F22",
"V$	c #67696C",
"W$	c #6E6E6C",
"X$	c #CACACE",
"Y$	c #E5E5EF",
"Z$	c #E2E1EE",
"`$	c #E1E3EF",
" %	c #DBDEEC",
".%	c #E2E3EF",
"+%	c #DADBEB",
"@%	c #E4E5EF",
"#%	c #FDFDFC",
"$%	c #FEFEFC",
"%%	c #FDFCFB",
"&%	c #F9F8F5",
"*%	c #EFEDE8",
"=%	c #DDD6D1",
"-%	c #BDB3A6",
";%	c #9F917F",
">%	c #595348",
",%	c #161513",
"'%	c #030303",
")%	c #363639",
"!%	c #636465",
"~%	c #888886",
"{%	c #F2F1F1",
"]%	c #EFEFEF",
"^%	c #CECDD1",
"/%	c #D3D1D3",
"(%	c #DBDCDD",
"_%	c #E0E0E1",
":%	c #F4F4F3",
"<%	c #F2F2F0",
"[%	c #EEEDEB",
"}%	c #E2DEDB",
"|%	c #C7BFB8",
"1%	c #A29586",
"2%	c #958878",
"3%	c #403C35",
"4%	c #12110F",
"5%	c #505053",
"6%	c #4D4E50",
"7%	c #A8A9A7",
". + + @ # # # # # $ $ % $ $ & * = - @ ; > * , # # # # #         ",
"' ) ! ! ~ { ] ^ / ( _ : < [ } | , 1 1 1 1 1 1 1 1 1 1 2         ",
"3 4 5 $ & 6 7 8 9 0 a b c d e d f g h h h h h h h h h h i       ",
"+ j k l m n o p q r s t u v w x y z A B C C C C C C C C i i     ",
"D > E F G H I J K L M N O P Q R S T U I V W W W W W W W i i     ",
"X Y Z `  ...+.@.#.$.%.&.*.=.-.;.>.,.'.).!.~.~.~.~.~.~.~.i i     ",
"{.].^./.(._.:.<.[.}.|.1.2.3.4.5.6.7.8.9.0.a.~.~.~.~.~.~.i i     ",
"b.c.d.e.f.g.h.i.j.k.l.m.n.o.p.q.r.s.t.'.u.v.~.~.~.~.~.~.i i     ",
"w.x.y.z.A.B.B.C.D.E.F.G.H.I.J.K.L.M.N.O.P.Q.R.~.~.~.~.~.i i     ",
"S.T.U.V.W.X.Y.Z.`. +.+++@+#+$+%+&+*+=+-+;+>+,+~.~.~.~.~.i i     ",
"'+)+!+~+{+]+^+/+(+_+:+<+[+}+|+1+2+3+4+5+6+7+8+~.~.~.~.~.i i     ",
"9+0+a+<+b+c+d+e+(+f+g+h+i+j+k+l+m+n+o+p+q+r+s+~.~.~.~.~.i i     ",
"t+u+v+w+x+y+z+A+B+C+D+E+d.F+j.G.G+H+I+J+K+L+M+~.~.~.~.~.i i     ",
"N+O+P+Q+R+S+T+U+V+W+X+Y+Z+`+ @~+.@+@I+@@#@$@%@&@&@&@&@&@i i     ",
"*@=@-@;@>@,@'@)@!@~@{@]@^@/@(@_@:@<@[@}@|@1@2@3@3@3@3@3@i i     ",
"4@5@6@7@8@B 9@0@a@b@c@d@e@f@g@h@i@j@k@l@m@n@9@~.~.~.~.~.i i     ",
"o@p@q@r@s@t@u@v@w@l.x@C+y@z@A@B@C@@+D@E@F@G@~.~.~.~.~.~.i i     ",
"H@I@*@J@K@L@M@~.N@O@C+P@Q@z@R@S@T@U@V@W@X@Y@~.~.~.~.~.~.i i     ",
"Z@`@ #.#+#@###@#$#K.%#&#*#=#-#;#>#J+,#'#)#C C C C C C C i i     ",
"!#~#{#]#^#/#(#_#:#<#[#-#}#|#1#2#3#4#5#6#7#@ @ @ @ @ @ @ i i     ",
"8#9#0#a#b#c#d#e#f#<#g#h#i#j#k#l#m#n#o#p#q#r#s#s#t#u#s#s#i i     ",
"v#w#x#y#z#A#B#C#D#E#F#=#G#H#I#J#K#L#M#N#O#P#Q#C C R#S#C i i     ",
"h T#U#V#W#X#Y#Z#`# $.$+$@$#$$$%$&$*$=$-$;$>$,$u#s#s#'$u#i i     ",
"B R#)$!$~${$]$^$/$($_$:$/$<$[$/$}$|$1$2$3$4$5$6$7$8$9$B i i     ",
"0$a$b$c$d$e$f$g$h$i$j$k$l$m$n$o$p$q$r$s$t$u$v$w$x$y$z$A$i i     ",
"B$s#C$D$E$F$G${.H$I$J$K$I$L$I$M$N$O$P$Q$R$S$T$U$V$W$,+s#i i     ",
"0$~.a$X$Y$Z$`$ %.%+%@%#%$%$%$%%%&%*%=%-%;%>%,%'%)%!%~%{%i i     ",
"Y@X X ]%@ ^%/%,+(%> _%X X X X :%<%[%}%|%1%2%3%4%'%5%6%7%i i     ",
"    i i i i i i i i i i i i i i i i i i i i i i i i i i i i     ",
"      i i i i i i i i i i i i i i i i i i i i i i i i i i       ",
"                                                                ",
"                                                                "};
