/* XPM */
static char * hpctraceviewer032_xpm[] = {
"32 32 934 2",
"  	c None",
". 	c #B1B3C5",
"+ 	c #AEB4C3",
"@ 	c #AEA9C7",
"# 	c #A7A5C2",
"$ 	c #B3AAB1",
"% 	c #AFACC5",
"& 	c #B0A8BF",
"* 	c #AEB0C6",
"= 	c #AEACC3",
"- 	c #AFB0B7",
"; 	c #B0A9B7",
"> 	c #B3AEB0",
", 	c #B4B1BE",
"' 	c #B9B6A6",
") 	c #B9B7AE",
"! 	c #BDAFB8",
"~ 	c #BBACB3",
"{ 	c #BDAAB5",
"] 	c #B8ADB4",
"^ 	c #B1AAAB",
"/ 	c #B2A7A7",
"( 	c #BAABB7",
"_ 	c #B5AFB2",
": 	c #BBA2B5",
"< 	c #B8A6B4",
"[ 	c #BCA6B8",
"} 	c #B7A5B1",
"| 	c #BAA5B4",
"1 	c #BEA5B9",
"2 	c #B7A5B2",
"3 	c #BCA4B1",
"4 	c #BAA6BA",
"5 	c #95B1B3",
"6 	c #94B0BD",
"7 	c #90AAE1",
"8 	c #95C0BB",
"9 	c #94CCC4",
"0 	c #90D7DC",
"a 	c #91D5D8",
"b 	c #90CADB",
"c 	c #96C6D3",
"d 	c #99CAD1",
"e 	c #6D8BAC",
"f 	c #5B7387",
"g 	c #577F6A",
"h 	c #4C7476",
"i 	c #4C7278",
"j 	c #517D7B",
"k 	c #5B8484",
"l 	c #63949A",
"m 	c #8DB9CB",
"n 	c #95C4D8",
"o 	c #91C6DC",
"p 	c #94CFC6",
"q 	c #91D6E0",
"r 	c #90D6DC",
"s 	c #95D0D5",
"t 	c #8CD8DE",
"u 	c #97CBD1",
"v 	c #91D5DA",
"w 	c #8FBFE0",
"x 	c #8FBBDF",
"y 	c #8FBAE6",
"z 	c #93C7B4",
"A 	c #92C5DC",
"B 	c #97D1B7",
"C 	c #99CDB1",
"D 	c #A1C4C1",
"E 	c #A2C9CF",
"F 	c #9BCAC9",
"G 	c #9DC0C5",
"H 	c #96A9BF",
"I 	c #5A6680",
"J 	c #4A5641",
"K 	c #677F7A",
"L 	c #6A878A",
"M 	c #6B848A",
"N 	c #6B8187",
"O 	c #6A7A82",
"P 	c #6A7188",
"Q 	c #69718A",
"R 	c #718361",
"S 	c #595C71",
"T 	c #636C83",
"U 	c #99A78C",
"V 	c #A8B2D6",
"W 	c #A2B0AC",
"X 	c #A5BEC2",
"Y 	c #9EC4CE",
"Z 	c #A5BAC4",
"` 	c #A8BCCD",
" .	c #A3BDC5",
"..	c #A3B3D1",
"+.	c #A4A6CD",
"@.	c #A2BEA3",
"#.	c #A4BED1",
"$.	c #A0AFC6",
"%.	c #A4B99A",
"&.	c #A3B4AE",
"*.	c #A3BAA2",
"=.	c #A8BA85",
"-.	c #B1B59F",
";.	c #87897D",
">.	c #4A4B43",
",.	c #82857A",
"'.	c #979D93",
").	c #92968B",
"!.	c #8D918F",
"~.	c #8A898D",
"{.	c #7F8681",
"].	c #7C7A7C",
"^.	c #80747E",
"/.	c #7B6D77",
"(.	c #717172",
"_.	c #746A71",
":.	c #7D777E",
"<.	c #6E666E",
"[.	c #847C83",
"}.	c #B7A8B8",
"|.	c #B79CB2",
"1.	c #B2A0B0",
"2.	c #B4A6B5",
"3.	c #BA9FB9",
"4.	c #B49EB2",
"5.	c #B99CB5",
"6.	c #B99CB7",
"7.	c #B6A0B7",
"8.	c #B69EB4",
"9.	c #B9A3AF",
"0.	c #BEA4B9",
"a.	c #BF9EB7",
"b.	c #B59FAE",
"c.	c #B796AF",
"d.	c #7B6A78",
"e.	c #695E68",
"f.	c #92828E",
"g.	c #968895",
"h.	c #987F93",
"i.	c #9A889A",
"j.	c #9A7E99",
"k.	c #96849C",
"l.	c #8F809F",
"m.	c #867D95",
"n.	c #7D7489",
"o.	c #7A6E84",
"p.	c #716D7F",
"q.	c #6C6276",
"r.	c #696173",
"s.	c #6C677B",
"t.	c #736B7E",
"u.	c #696478",
"v.	c #A998BB",
"w.	c #A094B2",
"x.	c #A295B5",
"y.	c #A293B2",
"z.	c #A293B7",
"A.	c #A393B7",
"B.	c #A393B6",
"C.	c #A391B6",
"D.	c #A295B6",
"E.	c #B7AAAF",
"F.	c #ADB2A6",
"G.	c #A9AAA1",
"H.	c #A89F9D",
"I.	c #6C7063",
"J.	c #66636C",
"K.	c #878B8F",
"L.	c #8B9399",
"M.	c #8E8D93",
"N.	c #928697",
"O.	c #938798",
"P.	c #908A96",
"Q.	c #8C8A92",
"R.	c #8E8593",
"S.	c #8D8695",
"T.	c #8A8190",
"U.	c #8A7F8D",
"V.	c #877D8C",
"W.	c #79797D",
"X.	c #746D78",
"Y.	c #6F686F",
"Z.	c #786775",
"`.	c #7B7280",
" +	c #727179",
".+	c #B59EBB",
"++	c #B39DBA",
"@+	c #AE9DB4",
"#+	c #B49CB7",
"$+	c #AAA0B2",
"%+	c #AC9DB4",
"&+	c #B29AB6",
"*+	c #B29AB4",
"=+	c #BCA0B5",
"-+	c #B29EB3",
";+	c #A48BA3",
">+	c #8D7B8B",
",+	c #5A5660",
"'+	c #9F87A1",
")+	c #9D839E",
"!+	c #92839B",
"~+	c #87829B",
"{+	c #8D829D",
"]+	c #8A829F",
"^+	c #8D839F",
"/+	c #8B809D",
"(+	c #87809A",
"_+	c #887C9A",
":+	c #867C96",
"<+	c #827B93",
"[+	c #7F7692",
"}+	c #7C748D",
"|+	c #766F86",
"1+	c #6C6579",
"2+	c #666172",
"3+	c #6B6578",
"4+	c #70697B",
"5+	c #7D728A",
"6+	c #A195B5",
"7+	c #9E94B9",
"8+	c #9E93B5",
"9+	c #9E91B5",
"0+	c #9E97B8",
"a+	c #ABA0BC",
"b+	c #A4A0B3",
"c+	c #BAA1B6",
"d+	c #AE94AC",
"e+	c #A18A9D",
"f+	c #4F414E",
"g+	c #9E8A9C",
"h+	c #9F939F",
"i+	c #A88CA6",
"j+	c #A78FA5",
"k+	c #AB8FA6",
"l+	c #A893A4",
"m+	c #A990A6",
"n+	c #A691A4",
"o+	c #A68EA3",
"p+	c #A68AA1",
"q+	c #9F8C9D",
"r+	c #9E8F9D",
"s+	c #988996",
"t+	c #948592",
"u+	c #918090",
"v+	c #887585",
"w+	c #7C6C76",
"x+	c #786C74",
"y+	c #7D6D7B",
"z+	c #726971",
"A+	c #AF9DB0",
"B+	c #B7A4B7",
"C+	c #B8A0B6",
"D+	c #B6A4B6",
"E+	c #BD9ABA",
"F+	c #BCA7BA",
"G+	c #BF9FB9",
"H+	c #B6A1AF",
"I+	c #9C9095",
"J+	c #806577",
"K+	c #7F737C",
"L+	c #AE91A7",
"M+	c #A897A2",
"N+	c #B097A9",
"O+	c #B291A9",
"P+	c #B090A6",
"Q+	c #AF98A8",
"R+	c #B499AE",
"S+	c #A99AA3",
"T+	c #B092A9",
"U+	c #AD96A6",
"V+	c #AC8EA5",
"W+	c #AC90A4",
"X+	c #A28E9B",
"Y+	c #A689A0",
"Z+	c #A0869A",
"`+	c #988190",
" @	c #977E90",
".@	c #8B7685",
"+@	c #7F747A",
"@@	c #7F6B79",
"#@	c #8B7484",
"$@	c #877282",
"%@	c #C3A6BB",
"&@	c #C1A1B9",
"*@	c #BDA5B7",
"=@	c #C29DB9",
"-@	c #BBA5B4",
";@	c #BDA0B5",
">@	c #918DA1",
",@	c #8A7F8E",
"'@	c #594F5C",
")@	c #938C9B",
"!@	c #837B87",
"~@	c #8386A0",
"{@	c #9999BE",
"]@	c #999ABD",
"^@	c #989EBE",
"/@	c #83869F",
"(@	c #8987A5",
"_@	c #9C9CC1",
":@	c #858DA4",
"<@	c #7A7590",
"[@	c #78728C",
"}@	c #7A7991",
"|@	c #9998C0",
"1@	c #929F8C",
"2@	c #8E919D",
"3@	c #9192B9",
"4@	c #74758C",
"5@	c #4B414E",
"6@	c #3F363F",
"7@	c #48454E",
"8@	c #626778",
"9@	c #64667D",
"0@	c #A6A0CD",
"a@	c #A8A2D0",
"b@	c #A3A5CC",
"c@	c #A5A1CD",
"d@	c #A2A6CA",
"e@	c #A3A5CB",
"f@	c #807697",
"g@	c #706F7F",
"h@	c #494D59",
"i@	c #8D88A2",
"j@	c #000000",
"k@	c #8C96BA",
"l@	c #8697C3",
"m@	c #8EA4D9",
"n@	c #8EA3D7",
"o@	c #0F121E",
"p@	c #8EA2D5",
"q@	c #1F2533",
"r@	c #1D2931",
"s@	c #709996",
"t@	c #719EA1",
"u@	c #92C5E2",
"v@	c #90C1DB",
"w@	c #95C5C3",
"x@	c #91ABCE",
"y@	c #8FA7E0",
"z@	c #82A1A7",
"A@	c #6A7088",
"B@	c #6E7891",
"C@	c #98B49A",
"D@	c #9AABC9",
"E@	c #95A9A7",
"F@	c #9ABBC4",
"G@	c #9CBDCD",
"H@	c #232427",
"I@	c #11121A",
"J@	c #7D8772",
"K@	c #7A827A",
"L@	c #818583",
"M@	c #B6A6B3",
"N@	c #B5A8B5",
"O@	c #AFA8A6",
"P@	c #B6AAB3",
"Q@	c #B9A8B7",
"R@	c #82819D",
"S@	c #605F73",
"T@	c #8792AF",
"U@	c #9BA2C8",
"V@	c #AEB0D8",
"W@	c #A4AACE",
"X@	c #ACADD9",
"Y@	c #A4A3D1",
"Z@	c #24292F",
"`@	c #A3B7C6",
" #	c #AABFCE",
".#	c #0D0F0E",
"+#	c #95989A",
"@#	c #8B917B",
"##	c #7B7F9F",
"$#	c #71738A",
"%#	c #6C755E",
"&#	c #707292",
"*#	c #69756A",
"=#	c #A3C8D4",
"-#	c #A6B8C9",
";#	c #A6C0CD",
">#	c #A3C0D1",
",#	c #9DACCC",
"'#	c #947B87",
")#	c #715D66",
"!#	c #A4899D",
"~#	c #B99CB0",
"{#	c #030000",
"]#	c #020200",
"^#	c #B7A5AE",
"/#	c #1B1919",
"(#	c #949192",
"_#	c #998796",
":#	c #937F8B",
"<#	c #887080",
"[#	c #7A6774",
"}#	c #82707B",
"|#	c #7A6275",
"1#	c #C4A4BA",
"2#	c #C29BB8",
"3#	c #C59DBC",
"4#	c #B7A3AE",
"5#	c #C4A1BB",
"6#	c #997F8B",
"7#	c #6F626B",
"8#	c #A48B9C",
"9#	c #B49EAC",
"0#	c #C29EB8",
"a#	c #0A0709",
"b#	c #878686",
"c#	c #A07D94",
"d#	c #95808D",
"e#	c #8D7185",
"f#	c #7C6972",
"g#	c #83717C",
"h#	c #74606F",
"i#	c #C5AABC",
"j#	c #BE9EB8",
"k#	c #BCA2B2",
"l#	c #C59ABC",
"m#	c #BAA7B1",
"n#	c #7581AA",
"o#	c #667A48",
"p#	c #7A8ABC",
"q#	c #92A3D2",
"r#	c #93B8E2",
"s#	c #8FAFCA",
"t#	c #97B6D7",
"u#	c #97C2BF",
"v#	c #222D28",
"w#	c #9BD1D6",
"x#	c #8EC9CF",
"y#	c #88C4C9",
"z#	c #8FBFC1",
"A#	c #AAB3B8",
"B#	c #13191D",
"C#	c #7AB3B2",
"D#	c #769EAA",
"E#	c #6A939A",
"F#	c #697B94",
"G#	c #637D92",
"H#	c #5C7166",
"I#	c #9ABED3",
"J#	c #9EC6B1",
"K#	c #94B9DF",
"L#	c #95C8B4",
"M#	c #94ADD5",
"N#	c #7883A3",
"O#	c #788E6F",
"P#	c #677485",
"Q#	c #A0BBA3",
"R#	c #A6C6A1",
"S#	c #A5B9AD",
"T#	c #ABBEB2",
"U#	c #ACB4B4",
"V#	c #232A20",
"W#	c #A6BFB9",
"X#	c #A2A7B0",
"Y#	c #9EA3AF",
"Z#	c #A29FAC",
"`#	c #9A94A6",
" $	c #7C7F87",
".$	c #6C657A",
"+$	c #B6ABAD",
"@$	c #ACAAC1",
"#$	c #B2A8B8",
"$$	c #B0ABC0",
"%$	c #B2AAC0",
"&$	c #958289",
"*$	c #96758B",
"=$	c #7A6574",
"-$	c #BDA1B8",
";$	c #C7A4C2",
">$	c #C2A1BE",
",$	c #C2A5BD",
"'$	c #BDB0BC",
")$	c #453742",
"!$	c #A190B3",
"~$	c #958AAA",
"{$	c #968AA6",
"]$	c #9288A6",
"^$	c #9186A6",
"/$	c #877E98",
"($	c #24212A",
"_$	c #0A090C",
":$	c #45404C",
"<$	c #706A80",
"[$	c #726A82",
"}$	c #A294B7",
"|$	c #9F91B6",
"1$	c #9F92B6",
"2$	c #A191B4",
"3$	c #9E93B4",
"4$	c #98828E",
"5$	c #937886",
"6$	c #7A6971",
"7$	c #A994A6",
"8$	c #BFA3BB",
"9$	c #B6A2B2",
"0$	c #BC9AB4",
"a$	c #AF9EB3",
"b$	c #AD95B5",
"c$	c #B19CB7",
"d$	c #AA9DB3",
"e$	c #A793B1",
"f$	c #AA95B3",
"g$	c #AB9BB6",
"h$	c #A393AB",
"i$	c #A296AB",
"j$	c #A291A7",
"k$	c #9D92A6",
"l$	c #9C8EA5",
"m$	c #9A8B9F",
"n$	c #998BA0",
"o$	c #98899D",
"p$	c #907D94",
"q$	c #7A7280",
"r$	c #6C6370",
"s$	c #5D5462",
"t$	c #AD99B3",
"u$	c #AE99B7",
"v$	c #A99DB0",
"w$	c #B19AB5",
"x$	c #AB9CB5",
"y$	c #AA9BB4",
"z$	c #93939D",
"A$	c #86888E",
"B$	c #89828F",
"C$	c #727C7D",
"D$	c #B0B0C2",
"E$	c #ADA2BE",
"F$	c #AAAFBE",
"G$	c #AEACC0",
"H$	c #B7ABC0",
"I$	c #AFAAC5",
"J$	c #B4ADB7",
"K$	c #AAADB9",
"L$	c #ACA3B8",
"M$	c #ADAABD",
"N$	c #A4AAB1",
"O$	c #ACA6BA",
"P$	c #A1A7AC",
"Q$	c #A0A7AE",
"R$	c #A2A1AA",
"S$	c #9D9BAB",
"T$	c #9996A2",
"U$	c #928696",
"V$	c #7D8488",
"W$	c #766A7D",
"X$	c #6E6A76",
"Y$	c #6A6663",
"Z$	c #B6A7C8",
"`$	c #B4ACAD",
" %	c #B3A1C6",
".%	c #B2AAAA",
"+%	c #B5A2C7",
"@%	c #B7A9A5",
"#%	c #80A1BF",
"$%	c #738DA8",
"%%	c #749A72",
"&%	c #627C94",
"*%	c #7DA0C3",
"=%	c #99C3A9",
"-%	c #8AC5D3",
";%	c #91B1D6",
">%	c #91B3D5",
",%	c #92B2C3",
"'%	c #8FB1B4",
")%	c #8FB5C4",
"!%	c #8AC1B4",
"~%	c #8DCACB",
"{%	c #88CCCE",
"]%	c #88CBD0",
"^%	c #8EC3C4",
"/%	c #87AACB",
"(%	c #82AACB",
"_%	c #85B199",
":%	c #7AB7B7",
"<%	c #719FB0",
"[%	c #658C94",
"}%	c #5F8286",
"|%	c #3C4E5E",
"1%	c #92B4B4",
"2%	c #93C8C8",
"3%	c #92CBCC",
"4%	c #93CADB",
"5%	c #91D5CF",
"6%	c #91BBDE",
"7%	c #92C7BB",
"8%	c #9BA2A9",
"9%	c #95909A",
"0%	c #868B94",
"a%	c #88898D",
"b%	c #72727C",
"c%	c #A798C1",
"d%	c #AB9FC1",
"e%	c #A9A0B2",
"f%	c #ADB0A6",
"g%	c #B0A1CA",
"h%	c #AAA6B4",
"i%	c #ACABAE",
"j%	c #ACADC3",
"k%	c #9EB3B5",
"l%	c #A9AABC",
"m%	c #A3ACB9",
"n%	c #A6A4B6",
"o%	c #A1A2AB",
"p%	c #A093AD",
"q%	c #9991A6",
"r%	c #8E8A9E",
"s%	c #847A8A",
"t%	c #7B7883",
"u%	c #323538",
"v%	c #655F6B",
"w%	c #B5B2B8",
"x%	c #ADB4C2",
"y%	c #B2B0C0",
"z%	c #AFB1C1",
"A%	c #B6ACC9",
"B%	c #B0A9BC",
"C%	c #98B3B9",
"D%	c #94A0AD",
"E%	c #87939A",
"F%	c #7D8D90",
"G%	c #818C91",
"H%	c #65787A",
"I%	c #9CAABA",
"J%	c #9EC4C6",
"K%	c #A39CCB",
"L%	c #9BA8BF",
"M%	c #A2B0A4",
"N%	c #9DB6C1",
"O%	c #99B5C2",
"P%	c #A098C3",
"Q%	c #9F9EBE",
"R%	c #A4AB92",
"S%	c #A199C7",
"T%	c #9AA0C6",
"U%	c #99A486",
"V%	c #8BA0AB",
"W%	c #83929D",
"X%	c #808B97",
"Y%	c #3C3A3D",
"Z%	c #080C14",
"`%	c #ACBCBB",
" &	c #A5BAC0",
".&	c #A8B4CB",
"+&	c #A5BCC5",
"@&	c #A6BCD0",
"#&	c #A7A8CE",
"$&	c #A8B0AB",
"%&	c #A5A8CD",
"&&	c #AC97AE",
"*&	c #A293A4",
"=&	c #9D819D",
"-&	c #897A85",
";&	c #867483",
">&	c #857783",
",&	c #775D72",
"'&	c #9E92A6",
")&	c #B2B1B7",
"!&	c #B9A9B8",
"~&	c #B299AB",
"{&	c #AB9CA7",
"]&	c #A8A0A6",
"^&	c #AE9FAD",
"/&	c #AE9EAC",
"(&	c #A898A1",
"_&	c #A79EAB",
":&	c #A3979F",
"<&	c #A790AA",
"[&	c #938E92",
"}&	c #837D84",
"|&	c #2D282A",
"1&	c #967F96",
"2&	c #A68FA0",
"3&	c #BCA6BE",
"4&	c #BDA0B8",
"5&	c #C19EC0",
"6&	c #BAA4B3",
"7&	c #BF9FBE",
"8&	c #B7A9B0",
"9&	c #B8A8BD",
"0&	c #A592B2",
"a&	c #9E8CA6",
"b&	c #9789A4",
"c&	c #8E7D93",
"d&	c #807585",
"e&	c #7C6F81",
"f&	c #7F7284",
"g&	c #6E6074",
"h&	c #6F6377",
"i&	c #9B8AA7",
"j&	c #B4AABC",
"k&	c #AAAFB0",
"l&	c #AAA1A8",
"m&	c #AA94A5",
"n&	c #A996A4",
"o&	c #9AA09E",
"p&	c #A294A0",
"q&	c #9F8E99",
"r&	c #889092",
"s&	c #68636A",
"t&	c #100E0F",
"u&	c #1E181C",
"v&	c #313031",
"w&	c #434345",
"x&	c #888089",
"y&	c #ADA7B8",
"z&	c #A4ACAD",
"A&	c #AAACC6",
"B&	c #B4A7BD",
"C&	c #AFA3B9",
"D&	c #ADA3B8",
"E&	c #ADADC0",
"F&	c #BA9FB3",
"G&	c #B1A5AB",
"H&	c #B39CAA",
"I&	c #B095A9",
"J&	c #A18897",
"K&	c #98808C",
"L&	c #927887",
"M&	c #917683",
"N&	c #8D7480",
"O&	c #695761",
"P&	c #65575F",
"Q&	c #81707D",
"R&	c #A489A0",
"S&	c #A792A3",
"T&	c #A2889C",
"U&	c #A1919F",
"V&	c #9A7E97",
"W&	c #71646E",
"X&	c #4E4651",
"Y&	c #45363D",
"Z&	c #5B4A53",
"`&	c #605460",
" *	c #76687A",
".*	c #1B161B",
"+*	c #857792",
"@*	c #8C7E9B",
"#*	c #A291B7",
"$*	c #9F91B4",
"%*	c #9F92B4",
"&*	c #9F92B1",
"**	c #9D92B3",
"=*	c #9E90B1",
"-*	c #A9ACAD",
";*	c #A6AABA",
">*	c #A09ECB",
",*	c #A3A897",
"'*	c #9C99B1",
")*	c #938DB8",
"!*	c #8D9979",
"~*	c #827DA0",
"{*	c #7D7F91",
"]*	c #818A7F",
"^*	c #827798",
"/*	c #727A86",
"(*	c #606960",
"_*	c #586375",
":*	c #526272",
"<*	c #556468",
"[*	c #5A6256",
"}*	c #666E75",
"|*	c #737D71",
"1*	c #6E765A",
"2*	c #606357",
"3*	c #645F5A",
"4*	c #6A6561",
"5*	c #929390",
"6*	c #151814",
"7*	c #989F9E",
"8*	c #929293",
"9*	c #AAABB7",
"0*	c #AFABBB",
"a*	c #AEA3B8",
"b*	c #AA9FAF",
"c*	c #AD9FB3",
"d*	c #B7A7B4",
"e*	c #BBA2B4",
"f*	c #B7A1B0",
"g*	c #B59BAF",
"h*	c #AD9DA7",
"i*	c #A997A2",
"j*	c #A78EA0",
"k*	c #9D8F98",
"l*	c #95868B",
"m*	c #95858D",
"n*	c #988191",
"o*	c #99808E",
"p*	c #9D8295",
"q*	c #98838D",
"r*	c #9D8192",
"s*	c #9F8496",
"t*	c #9C808F",
"u*	c #9A8793",
"v*	c #957E8C",
"w*	c #847279",
"x*	c #756467",
"y*	c #766E6B",
"z*	c #826A75",
"A*	c #9D7E92",
"B*	c #1E1A1F",
"C*	c #7B6E83",
"D*	c #6F6475",
"E*	c #77697F",
"F*	c #B0A1BC",
"G*	c #AB9BB4",
"H*	c #AE96B5",
"I*	c #B2B1C0",
"J*	c #B6ACBF",
"K*	c #B0B3BD",
"L*	c #B5ACC5",
"M*	c #B6ABC2",
"N*	c #ACADBB",
"O*	c #B0A4B1",
"P*	c #A9A6B3",
"Q*	c #A89EAD",
"R*	c #A29EAB",
"S*	c #9F92A9",
"T*	c #9E8EA9",
"U*	c #A29796",
"V*	c #9C8EA7",
"W*	c #9E919F",
"X*	c #A794A6",
"Y*	c #A58DAE",
"Z*	c #A19896",
"`*	c #9D97A8",
" =	c #999187",
".=	c #938399",
"+=	c #82756F",
"@=	c #716C61",
"#=	c #706662",
"$=	c #86737A",
"%=	c #665C5E",
"&=	c #211A1E",
"*=	c #3E3A3D",
"==	c #272324",
"-=	c #92838E",
";=	c #AAA4B8",
">=	c #A89AB2",
",=	c #9BA7C1",
"'=	c #99AAC1",
")=	c #9BA6BE",
"!=	c #9FA5BC",
"~=	c #99A8C0",
"{=	c #9DA6BD",
"]=	c #9AA5BC",
"^=	c #99A4BD",
"/=	c #969FBF",
"(=	c #989CB5",
"_=	c #9591BA",
":=	c #9494AF",
"<=	c #9897A7",
"[=	c #9392B4",
"}=	c #9598AB",
"|=	c #969BAF",
"1=	c #9696B6",
"2=	c #98A1AF",
"3=	c #A3A3C0",
"4=	c #A19F91",
"5=	c #8E93A1",
"6=	c #8C8978",
"7=	c #717A6B",
"8=	c #6D6563",
"9=	c #626056",
"0=	c #3F3D39",
"a=	c #0C0D0D",
"b=	c #6E7A78",
"c=	c #212020",
"d=	c #ACABB1",
"e=	c #B9AFBC",
"f=	c #A091B4",
"g=	c #A393B0",
"h=	c #A191B5",
"i=	c #A293B1",
"j=	c #A095B5",
"k=	c #A091B6",
"l=	c #A093B1",
"m=	c #9F92B3",
"n=	c #A38FB0",
"o=	c #A090AE",
"p=	c #9E8FB3",
"q=	c #9D93B2",
"r=	c #A090B0",
"s=	c #9F8EB1",
"t=	c #9D91AE",
"u=	c #9F91B3",
"v=	c #9D8DAD",
"w=	c #9A8AAE",
"x=	c #9789AF",
"y=	c #9F8FA9",
"z=	c #8B8294",
"A=	c #867888",
"B=	c #716465",
"C=	c #65525A",
"D=	c #10120F",
"E=	c #0B0A0A",
"F=	c #1F1C1E",
"G=	c #6B5F6A",
"H=	c #243230",
"I=	c #B2A4B3",
"J=	c #A4A3C5",
"K=	c #A4A4C8",
"L=	c #A7ABB0",
"M=	c #A4A5C5",
"N=	c #A7A3C5",
"O=	c #A4A4C6",
"P=	c #A5A4C8",
"Q=	c #A6A4C4",
"R=	c #A7AEB3",
"S=	c #A6A2C6",
"T=	c #A4A5C1",
"U=	c #A6AAAE",
"V=	c #A2A3C7",
"W=	c #A4A5B7",
"X=	c #A6ADB9",
"Y=	c #A3B1C6",
"Z=	c #A4A9C1",
"`=	c #ACB4D1",
" -	c #AAC4BA",
".-	c #A8BBBA",
"+-	c #A9ACB5",
"@-	c #A2A9A6",
"#-	c #90A4A5",
"$-	c #787C7F",
"%-	c #6D6C6D",
"&-	c #575C5A",
"*-	c #201E21",
"=-	c #0F1011",
"--	c #040405",
";-	c #3B403C",
">-	c #4F5160",
",-	c #50564E",
". + @ # $ % & * = - ; > , ' ) ! ~ { ] ^ / ( _ : < [ } | 1 2 3 4 ",
"5 6 7 8 9 0 a b c d e f g h i j k l m n o p q r s t u v w x y z ",
"A B C D E F G H I J K L M N O P Q R S T U V W X Y Z `  ...+.@.#.",
"$.%.&.*.=.-.;.>.,.'.).!.~.{.].^./.(._.:.<.[.}.|.1.2.3.4.5.6.7.8.",
"9.0.a.b.c.d.e.f.g.h.i.j.k.l.m.n.o.p.q.r.s.t.u.v.w.x.y.z.A.B.C.D.",
"E.F.G.H.I.J.K.L.M.N.O.P.Q.R.S.T.U.V.W.X.Y.Z.`. +.+++@+#+$+%+&+*+",
"=+-+;+>+,+'+)+!+~+{+]+^+/+(+_+:+<+[+}+|+1+2+3+4+5+6+7+8+9+0+a+b+",
"c+d+e+f+g+h+i+j+k+l+m+n+o+p+q+r+s+t+t+u+v+w+x+y+z+A+B+C+D+E+F+G+",
"H+I+J+K+L+M+N+O+P+Q+R+S+T+U+V+W+X+Y+Z+`+ @.@+@@@#@$@%@&@*@=@-@;@",
">@,@'@)@!@~@{@]@^@/@(@_@:@<@[@}@|@1@2@3@4@5@6@7@8@9@0@a@b@c@d@e@",
"f@g@h@i@j@j@k@l@m@j@j@n@j@j@j@o@j@j@p@j@j@j@j@q@r@s@t@u@v@w@x@y@",
"z@A@B@C@j@j@D@E@F@j@j@G@j@H@j@j@I@j@J@j@j@j@j@j@j@K@L@M@N@O@P@Q@",
"R@S@T@U@j@j@V@W@X@j@j@Y@j@Z@`@ #.#j@+#j@j@@###$#%#&#*#=#-#;#>#,#",
"'#)#!#~#j@j@j@{#]#j@j@^#j@/#j@j@j@j@(#j@j@_#:#<#[#}#|#1#2#3#4#5#",
"6#7#8#9#j@j@j@j@j@j@j@0#j@a#j@j@j@j@b#j@j@c#d#e#f#g#h#i#j#k#l#m#",
"n#o#p#q#j@j@r#s#t#j@j@u#j@v#w#x#y#z#A#B#j@C#D#E#F#G#H#I#J#K#L#M#",
"N#O#P#Q#j@j@R#S#T#j@j@U#j@V#W#X#Y#Z#`#j@j@j@j@j@j@ $.$+$@$#$$$%$",
"&$*$=$-$j@j@;$>$,$j@j@'$j@)$!$~${$]$^$/$($j@j@_$:$<$[$}$|$1$2$3$",
"4$5$6$7$8$9$0$a$b$c$d$e$f$g$h$i$j$k$l$m$n$o$p$q$r$s$t$u$v$w$x$y$",
"z$A$B$C$D$E$F$G$H$I$J$K$L$M$N$O$P$Q$R$S$T$U$V$W$X$Y$Z$`$ %.%+%@%",
"#%$%%%&%*%=%-%;%>%,%'%)%!%~%{%]%^%/%(%_%:%<%[%}%|%1%2%3%4%5%6%7%",
"8%9%0%a%b%c%d%e%f%g%h%i%j%k%l%m%n%o%p%q%r%s%t%u%v%w%x%y%z%= A%B%",
"C%D%E%F%G%H%I%J%K%L%M%N%O%P%Q%R%S%T%U%V%W%X%Y%Z%`% &.&+&@&#&$&%&",
"&&*&=&-&;&>&,&'&)&!&~&{&]&^&/&(&_&:&<&[&}&|&j@1&2&3&4&5&6&7&8&9&",
"0&a&b&c&d&e&f&g&h&i&j&k&l&m&n&o&p&q&r&s&t&u&v&w&x&y&z&A&B&C&D&E&",
"F&G&H&I&J&K&L&M&N&O&P&Q&R&S&T&U&V&W&X&Y&Z&`& *.*+*@*#*$*%*&***=*",
"-*;*>*,*'*)*!*~*{*]*^*/*(*_*:*<*[*}*|*1*2*3*4*5*6*7*8*9*0*a*b*c*",
"d*e*4&f*g*h*i*j*k*l*m*n*o*p*q*r*s*t*u*v*w*x*y*z*A*B*C*D*E*F*G*H*",
"I*J*K*L*M*N*O*P*Q*R*S*T*U*V*W*X*Y*Z*`* =.=+=@=#=$=%=&=*===-=;=>=",
",='=)=!=~={=]=^=/=(=_=:=<=[=}=|=1=2=3=4=5=6=7=8=9=0=j@a=b=c=d=e=",
"f=g=h=i=j=k=l=m=n=$*o=p=q=r=s=t=u=v=w=x=y=z=A=B=C=D=E=j@F=G=H=I=",
"J=K=L=M=N=O=P=Q=R=S=T=U=V=W=X=Y=Z=`= -.-+-@-#-$-%-&-*-=---;->-,-"};
